<svg width="29" height="29" viewBox="0 0 29 29" fill="none" xmlns="http://www.w3.org/2000/svg">
<path d="M9.66764 26.5835H19.3343C24.1918 26.5835 25.0618 24.6381 25.3156 22.2698L26.2218 12.6031C26.5481 9.6548 25.7022 7.25021 20.5426 7.25021H8.4593C3.29972 7.25021 2.45389 9.6548 2.78014 12.6031L3.68639 22.2698C3.94014 24.6381 4.81014 26.5835 9.66764 26.5835Z" stroke="black" stroke-width="1.5" stroke-miterlimit="10" stroke-linecap="round" stroke-linejoin="round"/>
<path d="M9.66602 7.2502V6.28354C9.66602 4.14479 9.66602 2.41687 13.5327 2.41687H15.466C19.3327 2.41687 19.3327 4.14479 19.3327 6.28354V7.2502" stroke="black" stroke-width="1.5" stroke-miterlimit="10" stroke-linecap="round" stroke-linejoin="round"/>
<path d="M16.9173 15.7085V16.9169C16.9173 16.929 16.9173 16.929 16.9173 16.941C16.9173 18.2581 16.9052 19.3335 14.5007 19.3335C12.1082 19.3335 12.084 18.2702 12.084 16.9531V15.7085C12.084 14.5002 12.084 14.5002 13.2923 14.5002H15.709C16.9173 14.5002 16.9173 14.5002 16.9173 15.7085Z" stroke="black" stroke-width="1.5" stroke-miterlimit="10" stroke-linecap="round" stroke-linejoin="round"/>
<path d="M26.1598 13.2919C23.3685 15.3219 20.1785 16.5302 16.916 16.941" stroke="black" stroke-width="1.5" stroke-miterlimit="10" stroke-linecap="round" stroke-linejoin="round"/>
<path d="M3.16602 13.6181C5.88477 15.479 8.95393 16.6027 12.0835 16.9531" stroke="black" stroke-width="1.5" stroke-miterlimit="10" stroke-linecap="round" stroke-linejoin="round"/>
</svg>
