<svg width="33" height="32" viewBox="0 0 33 32" fill="none" xmlns="http://www.w3.org/2000/svg">
<path d="M22.3945 22V28H6.39453V4H16.3945V2H6.39453C5.8641 2 5.35539 2.21071 4.98032 2.58579C4.60524 2.96086 4.39453 3.46957 4.39453 4V28C4.39453 28.5304 4.60524 29.0391 4.98032 29.4142C5.35539 29.7893 5.8641 30 6.39453 30H22.3945C22.925 30 23.4337 29.7893 23.8087 29.4142C24.1838 29.0391 24.3945 28.5304 24.3945 28V22H22.3945Z" fill="black"/>
<path d="M29.9345 5.76006L26.6345 2.46006C26.3354 2.16689 25.9333 2.00269 25.5145 2.00269C25.0957 2.00269 24.6936 2.16689 24.3945 2.46006L10.3945 16.4601V22.0001H15.9245L29.9245 8.00006C30.2177 7.70097 30.3819 7.29886 30.3819 6.88006C30.3819 6.46125 30.2177 6.05914 29.9245 5.76006H29.9345ZM15.0945 20.0001H12.3945V17.3001L21.8345 7.85006L24.5445 10.5601L15.0945 20.0001ZM25.9545 9.15006L23.2445 6.44006L25.5145 4.17006L28.2245 6.88006L25.9545 9.15006Z" fill="black"/>
</svg>
