<svg width="29" height="29" viewBox="0 0 29 29" fill="none" xmlns="http://www.w3.org/2000/svg">
<path d="M12.2163 13.4727H9.0142C8.25295 13.4727 7.63672 14.0889 7.63672 14.8501V21.0368H12.2163V13.4727V13.4727Z" stroke="black" stroke-width="1.5" stroke-miterlimit="10" stroke-linecap="round" stroke-linejoin="round"/>
<path d="M15.4192 7.97473H13.5826C12.8213 7.97473 12.2051 8.591 12.2051 9.35225V21.0248H16.7847V9.35225C16.7847 8.591 16.1805 7.97473 15.4192 7.97473Z" stroke="black" stroke-width="1.5" stroke-miterlimit="10" stroke-linecap="round" stroke-linejoin="round"/>
<path d="M19.995 15.5268H16.793V21.0248H21.3726V16.9043C21.3605 16.1431 20.7442 15.5268 19.995 15.5268Z" stroke="black" stroke-width="1.5" stroke-miterlimit="10" stroke-linecap="round" stroke-linejoin="round"/>
<path d="M10.8743 26.5831H18.1243C24.166 26.5831 26.5827 24.1664 26.5827 18.1248V10.8748C26.5827 4.83309 24.166 2.41643 18.1243 2.41643H10.8743C4.83268 2.41643 2.41602 4.83309 2.41602 10.8748V18.1248C2.41602 24.1664 4.83268 26.5831 10.8743 26.5831Z" stroke="black" stroke-width="1.5" stroke-linecap="round" stroke-linejoin="round"/>
</svg>
