<svg width="37" height="32" viewBox="0 0 37 32" fill="none" xmlns="http://www.w3.org/2000/svg">
<g clip-path="url(#clip0_457_2071)">
<path d="M15.1045 7.11108H24.1483V8.88886H15.1045V7.11108Z" fill="black"/>
<path d="M15.1045 10.6667H24.1483V12.4445H15.1045V10.6667Z" fill="black"/>
<path d="M15.1045 14.2222H24.1483V15.9999H15.1045V14.2222Z" fill="black"/>
<path d="M15.1045 17.7778H24.1483V19.5556H15.1045V17.7778Z" fill="black"/>
<path d="M15.1045 21.3333H24.1483V23.111H15.1045V21.3333Z" fill="black"/>
<path d="M11.085 7.11108H13.0947V8.88886H11.085V7.11108Z" fill="black"/>
<path d="M11.085 10.6667H13.0947V12.4445H11.085V10.6667Z" fill="black"/>
<path d="M11.085 14.2222H13.0947V15.9999H11.085V14.2222Z" fill="black"/>
<path d="M11.085 17.7778H13.0947V19.5556H11.085V17.7778Z" fill="black"/>
<path d="M11.085 21.3333H13.0947V23.111H11.085V21.3333Z" fill="black"/>
<path d="M28.1676 1.77783H8.07028C7.53726 1.77783 7.02608 1.96513 6.64918 2.29853C6.27229 2.63193 6.06055 3.08411 6.06055 3.55561V28.4445C6.06055 28.916 6.27229 29.3682 6.64918 29.7016C7.02608 30.035 7.53726 30.2223 8.07028 30.2223H28.1676C28.7006 30.2223 29.2118 30.035 29.5886 29.7016C29.9655 29.3682 30.1773 28.916 30.1773 28.4445V3.55561C30.1773 3.08411 29.9655 2.63193 29.5886 2.29853C29.2118 1.96513 28.7006 1.77783 28.1676 1.77783ZM28.1676 28.4445H8.07028V3.55561H28.1676V28.4445Z" fill="black"/>
</g>
<defs>
<clipPath id="clip0_457_2071">
<rect width="36.1751" height="32" fill="white" transform="translate(0.03125)"/>
</clipPath>
</defs>
</svg>
