<svg width="29" height="30" viewBox="0 0 29 30" fill="none" xmlns="http://www.w3.org/2000/svg">
<path d="M9.79647 27.5342H5.01062C2.62955 27.5342 1.48047 26.4325 1.48047 24.1581V5.44113C1.48047 3.16666 2.64139 2.06497 5.01062 2.06497H9.79647C12.1775 2.06497 13.3266 3.16666 13.3266 5.44113V24.1581C13.3266 26.4325 12.1657 27.5342 9.79647 27.5342ZM5.01062 3.8419C3.50616 3.8419 3.25739 4.24466 3.25739 5.44113V24.1581C3.25739 25.3545 3.50616 25.7573 5.01062 25.7573H9.79647C11.3009 25.7573 11.5497 25.3545 11.5497 24.1581V5.44113C11.5497 4.24466 11.3009 3.8419 9.79647 3.8419H5.01062Z" fill="#0C0C0C"/>
<path d="M23.4195 16.8727H18.6337C16.2526 16.8727 15.1035 15.771 15.1035 13.4965V5.44113C15.1035 3.16666 16.2644 2.06497 18.6337 2.06497H23.4195C25.8006 2.06497 26.9497 3.16666 26.9497 5.44113V13.4965C26.9497 15.771 25.7887 16.8727 23.4195 16.8727ZM18.6337 3.84189C17.1292 3.84189 16.8804 4.24466 16.8804 5.44113V13.4965C16.8804 14.693 17.1292 15.0957 18.6337 15.0957H23.4195C24.924 15.0957 25.1727 14.693 25.1727 13.4965V5.44113C25.1727 4.24466 24.924 3.84189 23.4195 3.84189H18.6337Z" fill="#0C0C0C"/>
<path d="M23.4195 27.5336H18.6337C16.2526 27.5336 15.1035 26.4319 15.1035 24.1575V22.0252C15.1035 19.7507 16.2644 18.649 18.6337 18.649H23.4195C25.8006 18.649 26.9497 19.7507 26.9497 22.0252V24.1575C26.9497 26.4319 25.7887 27.5336 23.4195 27.5336ZM18.6337 20.4259C17.1292 20.4259 16.8804 20.8287 16.8804 22.0252V24.1575C16.8804 25.3539 17.1292 25.7567 18.6337 25.7567H23.4195C24.924 25.7567 25.1727 25.3539 25.1727 24.1575V22.0252C25.1727 20.8287 24.924 20.4259 23.4195 20.4259H18.6337Z" fill="#0C0C0C"/>
</svg>
