<svg width="33" height="32" viewBox="0 0 33 32" fill="none" xmlns="http://www.w3.org/2000/svg">
<path d="M15.2592 11.3664C15.4094 11.2162 15.4938 11.0125 15.4938 10.8C15.4938 10.5876 15.4094 10.3839 15.2592 10.2336C15.109 10.0834 14.9052 9.99904 14.6928 9.99904C14.4803 9.99904 14.2766 10.0834 14.1264 10.2336L11.8672 12.4928L11.232 11.9136C11.0741 11.7788 10.8701 11.7105 10.6628 11.7233C10.4556 11.7361 10.2615 11.829 10.1215 11.9823C9.98146 12.1356 9.90653 12.3373 9.91252 12.5449C9.91851 12.7524 10.005 12.9495 10.1536 13.0944L11.3536 14.1904C11.5056 14.3289 11.7051 14.4035 11.9107 14.3987C12.1163 14.3939 12.3121 14.3102 12.4576 14.1648L15.2576 11.3648L15.2592 11.3664ZM15.2592 18.2336C15.3337 18.308 15.3928 18.3962 15.4331 18.4934C15.4734 18.5906 15.4942 18.6948 15.4942 18.8C15.4942 18.9053 15.4734 19.0095 15.4331 19.1067C15.3928 19.2039 15.3337 19.2921 15.2592 19.3664L12.4592 22.1664C12.3134 22.312 12.1171 22.3958 11.9112 22.4002C11.7052 22.4047 11.5055 22.3296 11.3536 22.1904L10.1536 21.0944C10.005 20.9495 9.91851 20.7524 9.91252 20.5449C9.90653 20.3373 9.98146 20.1356 10.1215 19.9823C10.2615 19.829 10.4556 19.7361 10.6628 19.7233C10.8701 19.7105 11.0741 19.7788 11.232 19.9136L11.8672 20.4944L14.1264 18.2336C14.2007 18.1591 14.289 18.1 14.3862 18.0597C14.4834 18.0194 14.5875 17.9986 14.6928 17.9986C14.798 17.9986 14.9022 18.0194 14.9994 18.0597C15.0966 18.1 15.1849 18.1591 15.2592 18.2336V18.2336ZM17.8928 19.2C17.6806 19.2 17.4771 19.2843 17.3271 19.4344C17.1771 19.5844 17.0928 19.7879 17.0928 20C17.0928 20.2122 17.1771 20.4157 17.3271 20.5657C17.4771 20.7158 17.6806 20.8 17.8928 20.8H20.5648C20.3888 20.2992 20.2928 19.76 20.2928 19.2H17.8928ZM9.89277 25.6H17.9728C17.92 25.8592 17.8928 26.1264 17.8928 26.4C17.8928 26.6672 17.9136 26.9344 17.9536 27.2H9.89277C8.61973 27.2 7.39884 26.6943 6.49866 25.7942C5.59849 24.894 5.09277 23.6731 5.09277 22.4V9.60005C5.09277 8.32701 5.59849 7.10611 6.49866 6.20594C7.39884 5.30576 8.61973 4.80005 9.89277 4.80005H22.6928C23.9658 4.80005 25.1867 5.30576 26.0869 6.20594C26.9871 7.10611 27.4928 8.32701 27.4928 9.60005V15.0416C26.9983 14.7553 26.4563 14.5602 25.8928 14.4656V9.60005C25.8928 8.75136 25.5556 7.93742 24.9555 7.33731C24.3554 6.73719 23.5415 6.40005 22.6928 6.40005H9.89277C9.04408 6.40005 8.23015 6.73719 7.63003 7.33731C7.02992 7.93742 6.69277 8.75136 6.69277 9.60005V22.4C6.69277 23.2487 7.02992 24.0627 7.63003 24.6628C8.23015 25.2629 9.04408 25.6 9.89277 25.6ZM17.0928 12C17.0928 11.7879 17.1771 11.5844 17.3271 11.4344C17.4771 11.2843 17.6806 11.2 17.8928 11.2H21.8928C22.1049 11.2 22.3084 11.2843 22.4585 11.4344C22.6085 11.5844 22.6928 11.7879 22.6928 12C22.6928 12.2122 22.6085 12.4157 22.4585 12.5657C22.3084 12.7158 22.1049 12.8 21.8928 12.8H17.8928C17.6806 12.8 17.4771 12.7158 17.3271 12.5657C17.1771 12.4157 17.0928 12.2122 17.0928 12ZM28.2928 19.2C28.2928 20.0487 27.9556 20.8627 27.3555 21.4628C26.7554 22.0629 25.9415 22.4 25.0928 22.4C24.2441 22.4 23.4301 22.0629 22.83 21.4628C22.2299 20.8627 21.8928 20.0487 21.8928 19.2C21.8928 18.3514 22.2299 17.5374 22.83 16.9373C23.4301 16.3372 24.2441 16 25.0928 16C25.9415 16 26.7554 16.3372 27.3555 16.9373C27.9556 17.5374 28.2928 18.3514 28.2928 19.2ZM30.6928 26.4C30.6928 28.392 29.0928 30.4 25.0928 30.4C21.0928 30.4 19.4928 28.4 19.4928 26.4C19.4928 25.7635 19.7456 25.1531 20.1957 24.703C20.6458 24.2529 21.2563 24 21.8928 24H28.2928C28.9293 24 29.5397 24.2529 29.9898 24.703C30.4399 25.1531 30.6928 25.7635 30.6928 26.4Z" fill="black"/>
</svg>
