<svg width="28" height="28" viewBox="0 0 28 28" fill="none" xmlns="http://www.w3.org/2000/svg">
<path d="M13.7309 13.1219C13.697 13.1219 13.6745 13.1219 13.6406 13.1219C13.5841 13.1106 13.5051 13.1106 13.4373 13.1219C10.1625 13.0202 7.68945 10.4456 7.68945 7.27237C7.68945 4.04273 10.3206 1.41159 13.5502 1.41159C16.7799 1.41159 19.411 4.04273 19.411 7.27237C19.3997 10.4456 16.9154 13.0202 13.7648 13.1219C13.7535 13.1219 13.7422 13.1219 13.7309 13.1219ZM13.5502 3.10546C11.2579 3.10546 9.38332 4.98 9.38332 7.27237C9.38332 9.53087 11.1449 11.349 13.3921 11.428C13.4486 11.4167 13.6067 11.4167 13.7535 11.428C15.9668 11.3264 17.7059 9.50828 17.7172 7.27237C17.7172 4.98 15.8426 3.10546 13.5502 3.10546Z" fill="black"/>
<path d="M13.7418 25.4645C11.5284 25.4645 9.30381 24.8998 7.62124 23.7706C6.05159 22.7317 5.19336 21.3088 5.19336 19.7618C5.19336 18.2147 6.05159 16.7806 7.62124 15.7304C11.009 13.4832 16.4971 13.4832 19.8623 15.7304C21.4206 16.7693 22.2901 18.1921 22.2901 19.7392C22.2901 21.2863 21.4319 22.7204 19.8623 23.7706C18.1684 24.8998 15.9551 25.4645 13.7418 25.4645ZM8.55851 17.1532C7.47444 17.8759 6.88723 18.8019 6.88723 19.7731C6.88723 20.7329 7.48573 21.6589 8.55851 22.3703C11.3703 24.2562 16.1132 24.2562 18.925 22.3703C20.0091 21.6476 20.5963 20.7216 20.5963 19.7505C20.5963 18.7906 19.9978 17.8646 18.925 17.1532C16.1132 15.2787 11.3703 15.2787 8.55851 17.1532Z" fill="black"/>
</svg>
