<svg width="29" height="29" viewBox="0 0 29 29" fill="none" xmlns="http://www.w3.org/2000/svg">
<path d="M11.7812 2.71875C8.28766 2.71875 5.4375 5.56891 5.4375 9.0625C5.4375 11.2466 6.55219 13.1859 8.24144 14.3305C5.00884 15.7171 2.71875 18.9252 2.71875 22.6562H4.53125C4.53125 18.6416 7.76656 15.4062 11.7812 15.4062C13.7252 15.4062 15.4633 16.2028 16.7656 17.4453L12.489 21.7219L12.4328 22.0047L11.8093 25.2055L11.5266 26.5359L12.8579 26.2532L16.0569 25.6297L16.3406 25.5735L25.4883 16.4258C26.5395 15.3745 26.5395 13.6255 25.4883 12.5742C24.981 12.071 24.2968 11.7863 23.5823 11.7811C22.8677 11.7758 22.1795 12.0504 21.6648 12.5461L18.0688 16.143C17.2699 15.3778 16.339 14.7637 15.3211 14.3305C16.1833 13.7484 16.8898 12.9639 17.3786 12.0455C17.8675 11.1271 18.1237 10.1029 18.125 9.0625C18.125 5.56891 15.2748 2.71875 11.7812 2.71875ZM11.7812 4.53125C14.2943 4.53125 16.3125 6.54947 16.3125 9.0625C16.3125 11.5755 14.2943 13.5938 11.7812 13.5938C9.26822 13.5938 7.25 11.5755 7.25 9.0625C7.25 6.54947 9.26822 4.53125 11.7812 4.53125ZM23.5625 13.5938C23.7927 13.5938 24.0338 13.6681 24.2141 13.8484C24.2997 13.931 24.3677 14.03 24.4142 14.1394C24.4607 14.2489 24.4846 14.3666 24.4846 14.4855C24.4846 14.6044 24.4607 14.7221 24.4142 14.8316C24.3677 14.941 24.2997 15.04 24.2141 15.1226L15.4343 23.9023L13.8203 24.2422L14.1602 22.6282L22.9399 13.8484C23.0208 13.7657 23.1177 13.7004 23.2248 13.6566C23.3319 13.6128 23.4468 13.5914 23.5625 13.5938Z" fill="#0C0C0C"/>
</svg>
