<svg width="28" height="28" viewBox="0 0 28 28" fill="none" xmlns="http://www.w3.org/2000/svg">
<path d="M13.5511 17.7856C11.2135 17.7856 9.31641 15.8885 9.31641 13.551C9.31641 11.2134 11.2135 9.31628 13.5511 9.31628C15.8886 9.31628 17.7858 11.2134 17.7858 13.551C17.7858 15.8885 15.8886 17.7856 13.5511 17.7856ZM13.5511 11.0101C12.1508 11.0101 11.0103 12.1507 11.0103 13.551C11.0103 14.9512 12.1508 16.0918 13.5511 16.0918C14.9513 16.0918 16.0919 14.9512 16.0919 13.551C16.0919 12.1507 14.9513 11.0101 13.5511 11.0101Z" fill="black"/>
<path d="M17.1744 25.058C16.9373 25.058 16.7001 25.0241 16.463 24.9676C15.7629 24.7757 15.1757 24.3353 14.803 23.7142L14.6675 23.4883C14.0012 22.3365 13.0866 22.3365 12.4203 23.4883L12.2961 23.7029C11.9234 24.3353 11.3362 24.787 10.6361 24.9676C9.92467 25.1596 9.19066 25.058 8.56958 24.6853L6.62727 23.5674C5.93843 23.1721 5.44156 22.5285 5.22701 21.7493C5.02374 20.9701 5.12538 20.1684 5.52061 19.4795C5.84809 18.9036 5.93843 18.3841 5.74646 18.0567C5.55449 17.7292 5.06891 17.5372 4.40266 17.5372C2.75396 17.5372 1.41016 16.1934 1.41016 14.5447V12.5572C1.41016 10.9085 2.75396 9.56473 4.40266 9.56473C5.06891 9.56473 5.55449 9.37276 5.74646 9.04528C5.93843 8.7178 5.85939 8.19835 5.52061 7.62243C5.12538 6.93359 5.02374 6.12053 5.22701 5.35265C5.43027 4.57347 5.92714 3.9298 6.62727 3.53456L8.58087 2.41661C9.85692 1.66001 11.5395 2.10042 12.3074 3.39905L12.4429 3.6249C13.1091 4.77673 14.0238 4.77673 14.6901 3.6249L14.8143 3.41034C15.5822 2.10042 17.2648 1.66001 18.5521 2.4279L20.4944 3.54585C21.1833 3.94109 21.6801 4.58476 21.8947 5.36394C22.0979 6.14312 21.9963 6.94488 21.6011 7.63372C21.2736 8.20964 21.1833 8.72909 21.3752 9.05657C21.5672 9.38406 22.0528 9.57603 22.719 9.57603C24.3677 9.57603 25.7115 10.9198 25.7115 12.5685V14.556C25.7115 16.2047 24.3677 17.5485 22.719 17.5485C22.0528 17.5485 21.5672 17.7405 21.3752 18.068C21.1833 18.3954 21.2623 18.9149 21.6011 19.4908C21.9963 20.1796 22.1092 20.9927 21.8947 21.7606C21.6914 22.5398 21.1945 23.1834 20.4944 23.5787L18.5408 24.6966C18.1117 24.9338 17.6487 25.058 17.1744 25.058ZM13.5496 20.8798C14.5546 20.8798 15.4919 21.5122 16.1355 22.6301L16.2597 22.8447C16.3953 23.0818 16.6211 23.2512 16.8921 23.3189C17.1631 23.3867 17.4342 23.3528 17.66 23.2173L19.6136 22.0881C19.9072 21.9187 20.1331 21.6364 20.2234 21.2976C20.3137 20.9588 20.2686 20.6088 20.0992 20.3152C19.4555 19.2085 19.3765 18.068 19.8733 17.1984C20.3702 16.3289 21.3978 15.832 22.6852 15.832C23.4079 15.832 23.9838 15.2561 23.9838 14.5334V12.5459C23.9838 11.8345 23.4079 11.2473 22.6852 11.2473C21.3978 11.2473 20.3702 10.7504 19.8733 9.88092C19.3765 9.0114 19.4555 7.87086 20.0992 6.7642C20.2686 6.4706 20.3137 6.12053 20.2234 5.78176C20.1331 5.44299 19.9185 5.17197 19.6249 4.99129L17.6713 3.87333C17.1857 3.57973 16.5421 3.74912 16.2484 4.24599L16.1242 4.46054C15.4806 5.5785 14.5433 6.21087 13.5383 6.21087C12.5332 6.21087 11.596 5.5785 10.9523 4.46054L10.8281 4.23469C10.5458 3.76041 9.91338 3.59102 9.4278 3.87333L7.47421 5.00258C7.1806 5.17197 6.95475 5.45428 6.86441 5.79305C6.77407 6.13183 6.81924 6.48189 6.98863 6.7755C7.6323 7.88216 7.71135 9.0227 7.21448 9.89222C6.71761 10.7617 5.69 11.2586 4.40266 11.2586C3.67994 11.2586 3.10403 11.8345 3.10403 12.5572V14.5447C3.10403 15.2561 3.67994 15.8433 4.40266 15.8433C5.69 15.8433 6.71761 16.3402 7.21448 17.2097C7.71135 18.0792 7.6323 19.2198 6.98863 20.3264C6.81924 20.6201 6.77407 20.9701 6.86441 21.3089C6.95475 21.6477 7.16931 21.9187 7.46291 22.0994L9.41651 23.2173C9.65365 23.3641 9.93596 23.398 10.1957 23.3302C10.4667 23.2625 10.6926 23.0818 10.8394 22.8447L10.9636 22.6301C11.6072 21.5234 12.5445 20.8798 13.5496 20.8798Z" fill="black"/>
</svg>
